<?xml version="1.0" standalone="no"?>
<!DOCTYPE svg PUBLIC "-//W3C//DTD SVG 20010904//EN"
 "http://www.w3.org/TR/2001/REC-SVG-20010904/DTD/svg10.dtd">
<svg version="1.0" xmlns="http://www.w3.org/2000/svg"
 width="300.000000pt" height="244.000000pt" viewBox="0 0 300.000000 244.000000"
 preserveAspectRatio="xMidYMid meet">
<metadata>
Created by potrace 1.10, written by Peter Selinger 2001-2011
</metadata>
<g transform="translate(0.000000,244.000000) scale(0.100000,-0.100000)"
fill="#000000" stroke="none">
<path d="M2088 2415 c-21 -8 -53 -25 -71 -39 -19 -15 -43 -26 -55 -26 -59 0
-139 -54 -187 -126 -74 -111 -164 -160 -290 -157 -47 0 -122 14 -230 43 -154
40 -164 42 -275 37 -225 -10 -334 -78 -392 -245 -21 -60 -23 -84 -22 -237 1
-154 4 -184 33 -315 47 -208 33 -278 -67 -338 -97 -56 -244 -28 -335 65 -24
25 -54 77 -85 148 -37 84 -52 110 -67 110 -12 0 -21 -10 -26 -29 -13 -46 9
-174 38 -234 35 -70 117 -146 200 -185 62 -29 76 -32 168 -32 83 0 108 4 149
23 76 35 131 86 163 150 28 57 28 58 29 260 l1 204 32 31 31 32 837 3 c590 2
840 6 850 13 7 6 14 21 14 33 1 16 3 13 9 -9 4 -17 8 -22 9 -12 1 17 8 18 79
12 105 -10 172 -37 224 -90 85 -86 111 -238 112 -645 1 -151 -3 -315 -7 -365
-9 -102 -33 -230 -49 -260 -38 -70 -102 -124 -178 -148 -104 -34 -1006 -68
-1260 -49 -85 7 -207 14 -270 17 -307 13 -382 34 -463 133 -61 73 -82 198 -86
514 l-2 178 50 50 c28 28 51 56 51 62 0 6 -10 -2 -22 -18 -32 -42 -81 -84 -97
-84 -19 0 -9 -396 13 -527 22 -129 39 -164 107 -227 59 -55 120 -84 196 -91
260 -27 340 -29 853 -29 362 0 600 4 685 12 72 7 155 15 185 18 110 10 210 76
255 169 45 91 56 182 62 525 10 590 -28 759 -189 841 -44 22 -168 49 -228 49
-27 0 -43 6 -53 20 -20 29 -54 38 -113 27 -50 -8 -56 -7 -134 34 -96 50 -130
89 -160 187 -22 71 -20 82 15 82 41 0 93 32 120 72 31 46 31 52 1 91 -14 18
-30 53 -36 79 -7 27 -24 58 -41 74 -27 26 -28 31 -23 81 8 59 5 61 -58 38z
m32 -43 c0 -10 -5 -23 -11 -29 -7 -7 1 -24 29 -56 22 -25 42 -58 46 -74 8 -36
38 -93 48 -93 5 0 8 -8 8 -18 0 -25 -61 -82 -95 -88 -71 -13 -84 -39 -60 -122
21 -72 68 -146 108 -171 98 -59 143 -78 187 -76 25 1 52 5 61 9 11 5 27 -2 45
-18 26 -22 27 -26 14 -40 -13 -14 -105 -16 -760 -17 -410 -1 -785 -4 -833 -7
-85 -4 -90 -6 -123 -39 l-34 -34 0 -192 c0 -221 -8 -258 -74 -332 -64 -72
-203 -111 -316 -91 -156 29 -275 140 -306 285 -14 67 -19 139 -8 128 3 -3 25
-48 49 -101 35 -79 95 -174 95 -152 0 3 9 -3 19 -13 11 -11 46 -32 77 -47 69
-32 165 -36 229 -9 57 24 113 82 127 130 15 53 12 145 -6 209 -13 47 -35 166
-42 226 -14 123 7 344 37 402 24 47 82 109 118 127 67 34 161 53 261 53 52 0
102 -3 110 -5 8 -2 29 -7 45 -11 17 -4 42 -12 56 -18 15 -5 37 -11 50 -13 13
-2 53 -11 89 -20 102 -25 197 -23 264 8 74 34 129 80 167 139 34 52 97 110
111 102 4 -3 8 0 8 6 0 6 6 10 13 9 22 -4 71 13 122 42 58 33 75 36 75 11z"/>
<path d="M830 1522 c-18 -11 -36 -25 -39 -33 -3 -9 2 -7 14 5 31 30 57 34 216
35 84 1 155 4 158 6 2 3 -67 5 -155 5 -136 0 -164 -3 -194 -18z"/>
<path d="M1823 1533 c125 -2 329 -2 455 0 125 1 22 2 -228 2 -250 0 -353 -1
-227 -2z"/>
<path d="M1688 1105 c-28 -16 -68 -87 -68 -123 0 -21 0 -21 -36 3 -50 34 -70
32 -114 -13 -43 -43 -65 -107 -55 -159 7 -38 59 -103 82 -103 11 0 13 -5 8
-17 -31 -72 -38 -101 -31 -135 17 -94 185 -173 366 -173 157 0 214 43 214 160
0 66 0 66 26 60 33 -7 89 29 110 70 9 18 15 57 15 98 0 65 -2 70 -33 98 -36
32 -67 37 -98 15 -20 -14 -20 -13 -16 47 7 98 -37 154 -111 140 -60 -12 -110
-128 -90 -205 6 -24 10 -44 9 -45 -3 -3 -79 18 -85 23 -2 1 7 20 20 41 19 30
24 52 24 106 0 65 -2 70 -33 98 -36 32 -63 36 -104 14z m87 -29 c47 -47 41
-147 -11 -200 -66 -65 -136 1 -119 112 5 33 16 55 40 79 39 39 58 41 90 9z
m245 -53 c18 -23 21 -38 18 -86 -7 -93 -63 -150 -119 -121 -81 42 -38 234 52
234 18 0 35 -9 49 -27z m-440 -65 c46 -50 21 -181 -41 -214 -86 -44 -136 108
-65 200 32 43 74 48 106 14z m586 -109 c27 -30 29 -99 6 -152 -23 -52 -56 -73
-97 -63 -74 19 -66 189 12 229 31 17 55 12 79 -14z m-496 -20 c0 -9 -39 -23
-46 -16 -3 3 -2 17 2 31 6 26 7 26 25 10 11 -9 19 -21 19 -25z m196 -34 c93
-39 164 -147 164 -251 0 -105 -48 -139 -195 -138 -123 2 -259 49 -317 111 -60
64 6 210 122 269 71 36 154 39 226 9z m137 -28 l-6 -38 -23 22 -24 22 28 17
c15 10 28 17 29 16 1 -1 0 -19 -4 -39z"/>
</g>
</svg>
